GRFwalking.mot
version=1
nRows=7
nColumns=37
inDegrees=yes
endheader
time	ground_force_calcn_l_vx	ground_force_calcn_l_vy	ground_force_calcn_l_vz	ground_force_calcn_l_px	ground_force_calcn_l_py	ground_force_calcn_l_pz	ground_torque_calcn_l_vx	ground_torque_calcn_l_vy	ground_torque_calcn_l_vz	ground_force_calcn_r_vx	ground_force_calcn_r_vy	ground_force_calcn_r_vz	ground_force_calcn_r_px	ground_force_calcn_r_py	ground_force_calcn_r_pz	ground_torque_calcn_r_vx	ground_torque_calcn_r_vy	ground_torque_calcn_r_vz	ground_force_hand_l_vx	ground_force_hand_l_vy	ground_force_hand_l_vz	ground_force_hand_l_px	ground_force_hand_l_py	ground_force_hand_l_pz	ground_torque_hand_l_vx	ground_torque_hand_l_vy	ground_torque_hand_l_vz	ground_force_hand_r_vx	ground_force_hand_r_vy	ground_force_hand_r_vz	ground_force_hand_r_px	ground_force_hand_r_py	ground_force_hand_r_pz	ground_torque_hand_r_vx	ground_torque_hand_r_vy	ground_torque_hand_r_vz
3.099976      55.12267       825.782       89.4167     0.6784975 -4.163336e-17    -0.3986314             0     -3.442103             0             0             0             0             0             0             0             0             0             0             0             0             0      1.035232     0.8144425    -0.5457927             0             0             0             0             0             0     0.7050932     0.7674225    0.00910336             0             0             0
3.116642      64.17118      800.8113      83.00189     0.6801124 -4.163336e-17    -0.3974377             0     -1.504969             0     -15.45492      41.67772      2.970944      1.015825 -6.245005e-17     -0.126634             0     0.9425309             0             0             0             0      1.053579     0.8153724    -0.5405218             0             0             0             0             0             0       0.71784     0.7638686    0.01439945             0             0             0
3.133309      72.32468      756.4939      76.09251     0.6815587 -4.163336e-17    -0.3962378             0     0.1704859             0     -23.93927      86.25372     0.1335713      1.019231 -6.245005e-17    -0.1259256             0      1.189446             0             0             0             0      1.071012     0.8159415    -0.5353117             0             0             0             0             0             0     0.7316397     0.7606032    0.01945561             0             0             0
3.149976      77.69912      698.3531      69.73939     0.6843194 -4.163336e-17    -0.3948997             0       1.13112             0     -30.33004      142.8671     -5.773104      1.021867 -6.245005e-17    -0.1272955             0      1.156453             0             0             0             0       1.08716     0.8165366    -0.5303476             0             0             0             0             0             0     0.7464164     0.7581341    0.02413316             0             0             0
3.166642      80.11143      634.7379      64.14719     0.6891243 -4.163336e-17    -0.3933509             0      1.362017             0     -34.22572      205.5314     -14.15285      1.027875 -6.245005e-17    -0.1282021             0      0.943865             0             0             0             0       1.10172     0.8173645     -0.525702             0             0             0             0             0             0     0.7621778     0.7568187    0.02838919             0             0             0
3.183309      81.32371      573.7336      58.96055     0.6925637 -4.163336e-17    -0.3919309             0      1.187694             0     -37.37321      267.4593     -23.95429      1.032621 -6.245005e-17    -0.1280785             0     0.8434785             0             0             0             0      1.114523      0.818322    -0.5213184             0             0             0             0             0             0     0.7788796     0.7566046    0.03226754             0             0             0
3.199975      83.67814      519.9456      53.67805     0.6954727 -4.250073e-17    -0.3902081             0     0.9884626             0     -42.32222      323.4843     -34.24665      1.037224 -6.418477e-17    -0.1269091             0       1.13919             0             0             0             0      1.125459     0.8191025    -0.5171317             0             0             0             0             0             0     0.7962894     0.7570862    0.03580017             0             0             0
